<svg width="512" height="512" viewBox="0 0 512 512" fill="none" xmlns="http://www.w3.org/2000/svg">
  <rect width="512" height="512" rx="80" fill="#0a0b10"/>
  <!-- Shadow layers for depth -->
  <g transform="translate(256 256) scale(10) translate(-16 -16)">
    <path d="M3 7H9L17 16" stroke="#2ea4e0" stroke-opacity="0.35" stroke-width="2.5" stroke-linecap="round" stroke-linejoin="round" transform="translate(1.5 -0.8)"/>
    <path d="M3 16H17" stroke="#2ea4e0" stroke-opacity="0.35" stroke-width="2.5" stroke-linecap="round" transform="translate(1.5 -0.8)"/>
    <path d="M3 25H9L17 16" stroke="#2ea4e0" stroke-opacity="0.35" stroke-width="2.5" stroke-linecap="round" stroke-linejoin="round" transform="translate(1.5 -0.8)"/>
    <path d="M17 16H29" stroke="#2ea4e0" stroke-opacity="0.35" stroke-width="2.5" stroke-linecap="round" transform="translate(1.5 -0.8)"/>
    <circle cx="17" cy="16" r="2.5" fill="#2ea4e0" fill-opacity="0.35" transform="translate(1.5 -0.8)"/>
  </g>
  <g transform="translate(256 256) scale(10) translate(-16 -16)">
    <path d="M3 7H9L17 16" stroke="#ef4444" stroke-opacity="0.2" stroke-width="2.5" stroke-linecap="round" stroke-linejoin="round" transform="translate(-0.8 0.8)"/>
    <path d="M3 16H17" stroke="#ef4444" stroke-opacity="0.2" stroke-width="2.5" stroke-linecap="round" transform="translate(-0.8 0.8)"/>
    <path d="M3 25H9L17 16" stroke="#ef4444" stroke-opacity="0.2" stroke-width="2.5" stroke-linecap="round" stroke-linejoin="round" transform="translate(-0.8 0.8)"/>
    <path d="M17 16H29" stroke="#ef4444" stroke-opacity="0.2" stroke-width="2.5" stroke-linecap="round" transform="translate(-0.8 0.8)"/>
    <circle cx="17" cy="16" r="2.5" fill="#ef4444" fill-opacity="0.2" transform="translate(-0.8 0.8)"/>
  </g>
  <!-- Main icon -->
  <g transform="translate(256 256) scale(10) translate(-16 -16)">
    <path d="M3 7H9L17 16" stroke="#e0e4ef" stroke-width="2.5" stroke-linecap="round" stroke-linejoin="round"/>
    <path d="M3 16H17" stroke="#e0e4ef" stroke-width="2.5" stroke-linecap="round"/>
    <path d="M3 25H9L17 16" stroke="#e0e4ef" stroke-width="2.5" stroke-linecap="round" stroke-linejoin="round"/>
    <path d="M17 16H29" stroke="#e0e4ef" stroke-width="2.5" stroke-linecap="round"/>
    <circle cx="17" cy="16" r="2.5" fill="#e0e4ef"/>
  </g>
</svg>
